<svg width="1662" height="1005" viewBox="0 0 1662 1005" fill="none" xmlns="http://www.w3.org/2000/svg">
<path d="M87.1415 834.944L88.1379 875.888H84.4239C82.6727 865.622 78.3548 857.379 71.4705 851.159C64.6465 844.878 57.2489 841.738 49.2775 841.738C43.1178 841.738 38.2263 843.399 34.6029 846.72C31.04 849.981 29.2585 853.756 29.2585 858.043C29.2585 860.761 29.8926 863.176 31.1608 865.29C32.9121 868.128 35.7201 870.936 39.585 873.714C42.4233 875.707 48.9755 879.24 59.2417 884.313C73.6143 891.378 83.3067 898.051 88.319 904.332C93.2709 910.612 95.7469 917.798 95.7469 925.89C95.7469 936.157 91.731 945.004 83.6993 952.431C75.7279 959.799 65.5825 963.483 53.2632 963.483C49.3983 963.483 45.7447 963.09 42.3026 962.305C38.8604 961.52 34.5426 960.04 29.3491 957.866C26.4504 956.659 24.0651 956.055 22.193 956.055C20.6229 956.055 18.9622 956.659 17.2109 957.866C15.4596 959.074 14.0405 960.916 12.9535 963.392H9.60186V917.013H12.9535C15.6106 930.057 20.7135 940.022 28.2621 946.906C35.8711 953.73 44.0538 957.142 52.8103 957.142C59.5738 957.142 64.9485 955.3 68.9341 951.616C72.9802 947.932 75.0032 943.645 75.0032 938.753C75.0032 935.855 74.2182 933.047 72.6481 930.329C71.1383 927.612 68.8134 925.045 65.6731 922.629C62.5329 920.153 56.9771 916.953 49.0057 913.028C37.8338 907.532 29.802 902.852 24.9105 898.987C20.019 895.122 16.2447 890.804 13.5875 886.034C10.9908 881.263 9.69245 876.009 9.69245 870.272C9.69245 860.489 13.2856 852.155 20.4719 845.271C27.6582 838.387 36.7166 834.944 47.647 834.944C51.6327 834.944 55.4976 835.428 59.2417 836.394C62.08 837.118 65.5222 838.477 69.5682 840.47C73.6747 842.403 76.5432 843.369 78.1737 843.369C79.7438 843.369 80.9818 842.886 81.8876 841.919C82.7934 840.953 83.6389 838.628 84.4239 834.944H87.1415ZM180.443 925.619H137.053L131.89 937.576C130.199 941.561 129.353 944.853 129.353 947.449C129.353 950.892 130.742 953.428 133.52 955.058C135.151 956.025 139.167 956.749 145.568 957.232V960.584H104.715V957.232C109.123 956.568 112.746 954.756 115.585 951.797C118.423 948.778 121.926 942.588 126.092 933.228L170.025 835.216H171.747L216.042 935.945C220.269 945.487 223.742 951.495 226.459 953.971C228.512 955.843 231.411 956.93 235.155 957.232V960.584H175.732V957.232H178.178C182.949 957.232 186.3 956.568 188.233 955.24C189.561 954.273 190.226 952.884 190.226 951.073C190.226 949.986 190.044 948.869 189.682 947.721C189.561 947.178 188.656 944.913 186.965 940.927L180.443 925.619ZM177.363 918.916L159.065 876.613L140.223 918.916H177.363ZM288.328 844.818V895.273H291.86C297.295 895.273 301.734 894.458 305.176 892.827C308.618 891.197 311.517 888.449 313.872 884.584C316.288 880.719 317.858 875.496 318.583 868.913H321.753V930.601H318.583C317.435 918.946 314.295 911.276 309.162 907.593C304.089 903.848 298.322 901.976 291.86 901.976H288.328V939.569C288.328 945.849 288.66 949.774 289.324 951.344C290.049 952.915 291.408 954.304 293.4 955.511C295.454 956.659 298.201 957.232 301.643 957.232H305.72V960.584H241.496V957.232H245.572C249.135 957.232 252.004 956.598 254.178 955.33C255.748 954.485 256.956 953.035 257.801 950.982C258.465 949.533 258.797 945.728 258.797 939.569V858.768C258.797 852.488 258.465 848.562 257.801 846.992C257.137 845.422 255.778 844.063 253.725 842.916C251.732 841.708 249.014 841.104 245.572 841.104H241.496V837.753H345.124V872.99H341.41C340.564 864.716 338.39 858.587 334.888 854.601C331.445 850.615 326.433 847.807 319.851 846.177C316.227 845.271 309.524 844.818 299.741 844.818H288.328ZM400.017 904.603V939.025C400.017 945.668 400.41 949.865 401.195 951.616C402.04 953.307 403.49 954.666 405.543 955.692C407.596 956.719 411.431 957.232 417.047 957.232V960.584H354.182V957.232C359.859 957.232 363.693 956.719 365.686 955.692C367.739 954.605 369.158 953.217 369.944 951.526C370.789 949.835 371.212 945.668 371.212 939.025V859.311C371.212 852.669 370.789 848.502 369.944 846.811C369.158 845.06 367.739 843.671 365.686 842.644C363.633 841.617 359.798 841.104 354.182 841.104V837.753H411.25C426.105 837.753 436.975 838.779 443.86 840.832C450.744 842.886 456.36 846.69 460.708 852.246C465.056 857.741 467.23 864.203 467.23 871.631C467.23 880.689 463.969 888.177 457.447 894.096C453.28 897.84 447.453 900.648 439.965 902.52L469.495 944.098C473.36 949.472 476.108 952.824 477.738 954.153C480.214 956.025 483.082 957.051 486.344 957.232V960.584H447.664L408.079 904.603H400.017ZM400.017 844.365V898.172H405.181C413.575 898.172 419.855 897.417 424.022 895.907C428.189 894.337 431.45 891.559 433.805 887.574C436.221 883.528 437.428 878.274 437.428 871.812C437.428 862.452 435.224 855.537 430.816 851.068C426.468 846.6 419.432 844.365 409.71 844.365H400.017ZM561.981 925.619H518.591L513.428 937.576C511.737 941.561 510.892 944.853 510.892 947.449C510.892 950.892 512.281 953.428 515.059 955.058C516.689 956.025 520.705 956.749 527.106 957.232V960.584H486.253V957.232C490.661 956.568 494.285 954.756 497.123 951.797C499.961 948.778 503.464 942.588 507.631 933.228L551.564 835.216H553.285L597.58 935.945C601.807 945.487 605.28 951.495 607.997 953.971C610.051 955.843 612.949 956.93 616.693 957.232V960.584H557.27V957.232H559.716C564.487 957.232 567.839 956.568 569.771 955.24C571.1 954.273 571.764 952.884 571.764 951.073C571.764 949.986 571.583 948.869 571.22 947.721C571.1 947.178 570.194 944.913 568.503 940.927L561.981 925.619ZM558.901 918.916L540.603 876.613L521.762 918.916H558.901ZM706.009 834.944L707.005 875.888H703.291C701.54 865.622 697.222 857.379 690.338 851.159C683.514 844.878 676.116 841.738 668.145 841.738C661.985 841.738 657.094 843.399 653.47 846.72C649.907 849.981 648.126 853.756 648.126 858.043C648.126 860.761 648.76 863.176 650.028 865.29C651.779 868.128 654.587 870.936 658.452 873.714C661.291 875.707 667.843 879.24 678.109 884.313C692.482 891.378 702.174 898.051 707.186 904.332C712.138 910.612 714.614 917.798 714.614 925.89C714.614 936.157 710.598 945.004 702.567 952.431C694.595 959.799 684.45 963.483 672.13 963.483C668.266 963.483 664.612 963.09 661.17 962.305C657.728 961.52 653.41 960.04 648.216 957.866C645.318 956.659 642.932 956.055 641.06 956.055C639.49 956.055 637.829 956.659 636.078 957.866C634.327 959.074 632.908 960.916 631.821 963.392H628.469V917.013H631.821C634.478 930.057 639.581 940.022 647.129 946.906C654.738 953.73 662.921 957.142 671.678 957.142C678.441 957.142 683.816 955.3 687.801 951.616C691.848 947.932 693.871 943.645 693.871 938.753C693.871 935.855 693.085 933.047 691.515 930.329C690.006 927.612 687.681 925.045 684.54 922.629C681.4 920.153 675.844 916.953 667.873 913.028C656.701 907.532 648.669 902.852 643.778 898.987C638.886 895.122 635.112 890.804 632.455 886.034C629.858 881.263 628.56 876.009 628.56 870.272C628.56 860.489 632.153 852.155 639.339 845.271C646.526 838.387 655.584 834.944 666.514 834.944C670.5 834.944 674.365 835.428 678.109 836.394C680.947 837.118 684.389 838.477 688.436 840.47C692.542 842.403 695.41 843.369 697.041 843.369C698.611 843.369 699.849 842.886 700.755 841.919C701.661 840.953 702.506 838.628 703.291 834.944H706.009ZM874.132 887.121H911.815V890.653C907.588 891.257 904.266 892.525 901.851 894.458C899.435 896.33 896.295 900.738 892.43 907.683C888.565 914.628 883.13 922.388 876.125 930.963C882.285 936.519 887.297 940.384 891.162 942.558C893.879 944.068 896.536 944.822 899.133 944.822C903.602 944.822 907.648 941.894 911.271 936.036L914.985 938.029C910.033 947.751 904.749 954.666 899.133 958.772C894.845 961.852 889.954 963.392 884.459 963.392C879.748 963.392 875.249 962.396 870.962 960.403C866.734 958.35 861.571 954.545 855.472 948.989C847.923 954.062 840.827 957.746 834.185 960.04C827.542 962.275 820.627 963.392 813.441 963.392C801.967 963.392 792.848 960.282 786.085 954.062C779.321 947.842 775.939 940.535 775.939 932.141C775.939 923.082 779.17 915.202 785.632 908.498C792.093 901.795 801.484 895.998 813.803 891.106C812.233 887.181 811.056 883.346 810.271 879.602C809.485 875.858 809.093 872.235 809.093 868.732C809.093 859.07 812.475 851.038 819.238 844.637C826.062 838.175 834.758 834.944 845.326 834.944C853.841 834.944 860.575 837.088 865.527 841.376C870.539 845.603 873.045 850.555 873.045 856.232C873.045 863.056 870.478 868.913 865.345 873.805C860.273 878.636 852.211 883.075 841.16 887.121C847.984 899.138 857.978 912.092 871.143 925.981C880.02 916.017 884.459 907.472 884.459 900.346C884.459 897.81 883.583 895.666 881.832 893.914C880.08 892.103 877.514 891.016 874.132 890.653V887.121ZM838.08 881.686C844.421 879.33 848.678 876.824 850.852 874.167C853.026 871.45 854.113 868.189 854.113 864.384C854.113 857.621 852.332 851.914 848.769 847.264C846.413 844.184 843.515 842.644 840.073 842.644C837.234 842.644 834.788 843.761 832.735 845.996C830.742 848.23 829.746 851.25 829.746 855.054C829.746 858.013 830.229 861.184 831.195 864.565C832.162 867.947 834.456 873.654 838.08 881.686ZM816.34 896.904C811.509 898.957 808.097 901.131 806.104 903.426C803.265 906.808 801.846 910.582 801.846 914.749C801.846 920.425 803.477 926.072 806.738 931.688C810.059 937.304 814.045 941.652 818.695 944.732C823.345 947.812 827.995 949.352 832.645 949.352C834.939 949.352 837.506 948.869 840.344 947.902C843.243 946.876 846.383 945.366 849.765 943.373C835.211 928.457 824.069 912.967 816.34 896.904ZM1093.25 834.944V877.519H1089.72C1087.06 866.407 1082.11 857.892 1074.87 851.974C1067.62 846.056 1059.41 843.097 1050.23 843.097C1042.56 843.097 1035.52 845.301 1029.12 849.71C1022.72 854.118 1018.04 859.885 1015.08 867.011C1011.28 876.13 1009.37 886.275 1009.37 897.447C1009.37 908.438 1010.76 918.463 1013.54 927.521C1016.32 936.519 1020.67 943.343 1026.58 947.993C1032.5 952.582 1040.17 954.877 1049.59 954.877C1057.32 954.877 1064.39 953.186 1070.79 949.805C1077.25 946.423 1084.04 940.595 1091.17 932.322V942.92C1084.29 950.106 1077.1 955.33 1069.61 958.591C1062.18 961.792 1053.49 963.392 1043.52 963.392C1030.42 963.392 1018.76 960.765 1008.56 955.511C998.413 950.257 990.562 942.709 985.006 932.865C979.511 923.022 976.763 912.544 976.763 901.433C976.763 889.717 979.813 878.606 985.912 868.098C992.072 857.59 1000.35 849.438 1010.73 843.641C1021.18 837.843 1032.26 834.944 1043.98 834.944C1052.61 834.944 1061.73 836.817 1071.33 840.561C1076.89 842.735 1080.42 843.822 1081.93 843.822C1083.86 843.822 1085.52 843.127 1086.91 841.738C1088.36 840.289 1089.3 838.024 1089.72 834.944H1093.25ZM1171.43 957.232V960.584H1107.2V957.232H1111.28C1114.84 957.232 1117.71 956.598 1119.89 955.33C1121.46 954.485 1122.66 953.035 1123.51 950.982C1124.17 949.533 1124.51 945.728 1124.51 939.569V858.768C1124.51 852.488 1124.17 848.562 1123.51 846.992C1122.84 845.422 1121.49 844.063 1119.43 842.916C1117.44 841.708 1114.72 841.104 1111.28 841.104H1107.2V837.753H1171.43V841.104H1167.35C1163.79 841.104 1160.92 841.738 1158.75 843.006C1157.18 843.852 1155.94 845.301 1155.03 847.354C1154.37 848.804 1154.04 852.608 1154.04 858.768V939.569C1154.04 945.849 1154.37 949.774 1155.03 951.344C1155.76 952.915 1157.12 954.304 1159.11 955.511C1161.16 956.659 1163.91 957.232 1167.35 957.232H1171.43ZM1226.77 844.818V895.273H1230.31C1235.74 895.273 1240.18 894.458 1243.62 892.827C1247.06 891.197 1249.96 888.449 1252.32 884.584C1254.73 880.719 1256.3 875.496 1257.03 868.913H1260.2V930.601H1257.03C1255.88 918.946 1252.74 911.276 1247.61 907.593C1242.54 903.848 1236.77 901.976 1230.31 901.976H1226.77V939.569C1226.77 945.849 1227.11 949.774 1227.77 951.344C1228.5 952.915 1229.85 954.304 1231.85 955.511C1233.9 956.659 1236.65 957.232 1240.09 957.232H1244.17V960.584H1179.94V957.232H1184.02C1187.58 957.232 1190.45 956.598 1192.62 955.33C1194.19 954.485 1195.4 953.035 1196.25 950.982C1196.91 949.533 1197.24 945.728 1197.24 939.569V858.768C1197.24 852.488 1196.91 848.562 1196.25 846.992C1195.58 845.422 1194.22 844.063 1192.17 842.916C1190.18 841.708 1187.46 841.104 1184.02 841.104H1179.94V837.753H1283.57V872.99H1279.86C1279.01 864.716 1276.84 858.587 1273.33 854.601C1269.89 850.615 1264.88 847.807 1258.3 846.177C1254.67 845.271 1247.97 844.818 1238.19 844.818H1226.77ZM1338.46 904.603V939.025C1338.46 945.668 1338.86 949.865 1339.64 951.616C1340.49 953.307 1341.94 954.666 1343.99 955.692C1346.04 956.719 1349.88 957.232 1355.49 957.232V960.584H1292.63V957.232C1298.3 957.232 1302.14 956.719 1304.13 955.692C1306.19 954.605 1307.6 953.217 1308.39 951.526C1309.24 949.835 1309.66 945.668 1309.66 939.025V859.311C1309.66 852.669 1309.24 848.502 1308.39 846.811C1307.6 845.06 1306.19 843.671 1304.13 842.644C1302.08 841.617 1298.24 841.104 1292.63 841.104V837.753H1349.7C1364.55 837.753 1375.42 838.779 1382.31 840.832C1389.19 842.886 1394.81 846.69 1399.15 852.246C1403.5 857.741 1405.68 864.203 1405.68 871.631C1405.68 880.689 1402.42 888.177 1395.89 894.096C1391.73 897.84 1385.9 900.648 1378.41 902.52L1407.94 944.098C1411.81 949.472 1414.55 952.824 1416.18 954.153C1418.66 956.025 1421.53 957.051 1424.79 957.232V960.584H1386.11L1346.53 904.603H1338.46ZM1338.46 844.365V898.172H1343.63C1352.02 898.172 1358.3 897.417 1362.47 895.907C1366.64 894.337 1369.9 891.559 1372.25 887.574C1374.67 883.528 1375.87 878.274 1375.87 871.812C1375.87 862.452 1373.67 855.537 1369.26 851.068C1364.91 846.6 1357.88 844.365 1348.16 844.365H1338.46ZM1500.43 925.619H1457.04L1451.87 937.576C1450.18 941.561 1449.34 944.853 1449.34 947.449C1449.34 950.892 1450.73 953.428 1453.5 955.058C1455.14 956.025 1459.15 956.749 1465.55 957.232V960.584H1424.7V957.232C1429.11 956.568 1432.73 954.756 1435.57 951.797C1438.41 948.778 1441.91 942.588 1446.08 933.228L1490.01 835.216H1491.73L1536.03 935.945C1540.25 945.487 1543.73 951.495 1546.44 953.971C1548.5 955.843 1551.4 956.93 1555.14 957.232V960.584H1495.72V957.232H1498.16C1502.93 957.232 1506.28 956.568 1508.22 955.24C1509.55 954.273 1510.21 952.884 1510.21 951.073C1510.21 949.986 1510.03 948.869 1509.67 947.721C1509.55 947.178 1508.64 944.913 1506.95 940.927L1500.43 925.619ZM1497.35 918.916L1479.05 876.613L1460.21 918.916H1497.35ZM1644.46 834.944L1645.45 875.888H1641.74C1639.99 865.622 1635.67 857.379 1628.78 851.159C1621.96 844.878 1614.56 841.738 1606.59 841.738C1600.43 841.738 1595.54 843.399 1591.92 846.72C1588.35 849.981 1586.57 853.756 1586.57 858.043C1586.57 860.761 1587.21 863.176 1588.47 865.29C1590.23 868.128 1593.03 870.936 1596.9 873.714C1599.74 875.707 1606.29 879.24 1616.56 884.313C1630.93 891.378 1640.62 898.051 1645.63 904.332C1650.58 910.612 1653.06 917.798 1653.06 925.89C1653.06 936.157 1649.04 945.004 1641.01 952.431C1633.04 959.799 1622.9 963.483 1610.58 963.483C1606.71 963.483 1603.06 963.09 1599.62 962.305C1596.17 961.52 1591.86 960.04 1586.66 957.866C1583.76 956.659 1581.38 956.055 1579.51 956.055C1577.94 956.055 1576.28 956.659 1574.52 957.866C1572.77 959.074 1571.35 960.916 1570.27 963.392H1566.92V917.013H1570.27C1572.92 930.057 1578.03 940.022 1585.58 946.906C1593.18 953.73 1601.37 957.142 1610.12 957.142C1616.89 957.142 1622.26 955.3 1626.25 951.616C1630.29 947.932 1632.32 943.645 1632.32 938.753C1632.32 935.855 1631.53 933.047 1629.96 930.329C1628.45 927.612 1626.13 925.045 1622.99 922.629C1619.85 920.153 1614.29 916.953 1606.32 913.028C1595.15 907.532 1587.12 902.852 1582.22 898.987C1577.33 895.122 1573.56 890.804 1570.9 886.034C1568.3 881.263 1567.01 876.009 1567.01 870.272C1567.01 860.489 1570.6 852.155 1577.79 845.271C1584.97 838.387 1594.03 834.944 1604.96 834.944C1608.95 834.944 1612.81 835.428 1616.56 836.394C1619.39 837.118 1622.84 838.477 1626.88 840.47C1630.99 842.403 1633.86 843.369 1635.49 843.369C1637.06 843.369 1638.3 842.886 1639.2 841.919C1640.11 840.953 1640.95 838.628 1641.74 834.944H1644.46Z" fill="#1D1D1B"/>
<path d="M1038.5 17.0072C1375.11 -21.2433 1606.52 317.274 1443.96 604.153L1181.94 447.326C1145.6 416.726 1107.35 458.801 1157.08 487.489L1434.39 657.704C1367.45 749.506 1302.43 764.806 1214.45 753.331C1141.78 745.681 1084.4 703.605 1027.02 650.054C837.683 474.102 738.231 80.1207 1036.59 15.0947L1038.5 17.0072Z" fill="#F9AF1D"/>
<path fill-rule="evenodd" clip-rule="evenodd" d="M1436.31 659.617C1430.57 636.667 1424.83 613.716 1421.01 590.766C1340.68 542.953 1262.27 495.139 1181.94 447.326C1151.34 422.463 1105.44 451.151 1153.25 487.489C1246.97 544.865 1340.68 602.241 1436.31 661.529V659.617Z" fill="#F4E5A3"/>
<path fill-rule="evenodd" clip-rule="evenodd" d="M1023.21 20.8327C1034.68 18.9202 1049.99 15.0952 1067.2 13.1826C1185.77 1.70745 1279.49 53.3457 1302.44 68.6459C1340.69 91.5963 1377.03 122.197 1407.63 158.535C1482.22 248.424 1516.64 370.825 1487.95 491.315C1478.39 527.653 1465 563.991 1443.97 600.329C1449.7 542.953 1451.61 445.414 1409.54 342.138C1310.09 101.159 1057.63 30.3954 1021.3 20.8327H1023.21Z" fill="#F5E5A3"/>
<path fill-rule="evenodd" clip-rule="evenodd" d="M338.522 745.683L323.224 690.22L514.476 563.993C562.29 531.48 587.152 575.468 554.639 600.331L338.522 745.683Z" fill="#A1BF9B"/>
<path fill-rule="evenodd" clip-rule="evenodd" d="M805.178 122.197L592.888 254.161C546.987 282.849 583.326 326.837 629.227 292.412L831.954 170.01C864.467 460.714 633.05 829.832 338.521 743.769L552.726 600.329C590.976 565.903 554.637 533.39 510.649 565.903L294.534 709.343C-99.4467 340.225 478.136 -241.184 805.178 122.197Z" fill="#007F5A"/>
<path fill-rule="evenodd" clip-rule="evenodd" d="M830.043 171.923L765.016 148.972L583.326 261.811C548.9 292.412 589.064 324.925 627.315 296.237L831.955 171.923H830.043Z" fill="#A0C198"/>
<path fill-rule="evenodd" clip-rule="evenodd" d="M525.95 9.35873C522.125 9.35873 516.388 9.35873 512.563 9.35873H508.736C506.824 9.35873 504.911 9.35873 501.086 9.35873C495.348 9.35873 487.698 11.2713 481.961 13.1838C481.961 13.1838 478.137 13.1838 476.224 13.1838C472.399 13.1838 470.487 13.1838 466.662 15.0963C464.749 15.0963 460.924 15.0963 459.011 17.0088C457.099 17.0088 455.185 17.0088 453.273 17.0088C449.448 17.0088 445.623 18.9214 439.886 20.8339C311.746 68.6471 204.646 187.224 168.308 324.926C158.745 365.089 154.92 407.165 158.745 449.24C160.658 476.016 172.133 571.642 244.809 655.793C263.934 676.831 281.146 692.131 294.534 703.607C283.059 678.744 195.081 489.403 290.708 288.588C399.722 59.0844 646.438 20.8339 663.651 18.9214C648.35 13.1838 629.227 7.44622 608.189 3.62116C575.676 -2.11642 546.987 -0.203893 525.95 3.62116V9.35873Z" fill="#A2BF98"/>
<path d="M1631.39 7.44727C1614.18 7.44727 1600.79 20.835 1600.79 38.0477C1600.79 55.2605 1614.18 68.6482 1631.39 68.6482C1648.61 68.6482 1661.99 55.2605 1661.99 38.0477C1661.99 20.835 1648.61 7.44727 1631.39 7.44727ZM1631.39 66.7357C1616.09 66.7357 1602.7 53.348 1602.7 38.0477C1602.7 22.7475 1616.09 9.3598 1631.39 9.3598C1646.69 9.3598 1660.08 22.7475 1660.08 38.0477C1660.08 53.348 1646.69 66.7357 1631.39 66.7357Z" fill="#1D1D1B"/>
<path d="M1639.04 41.8733C1639.04 41.8733 1639.04 41.8733 1637.13 41.8733C1640.95 41.8733 1642.87 41.8733 1644.78 38.0483C1644.78 38.0483 1646.69 34.2232 1646.69 32.3107C1646.69 30.3982 1646.69 28.4856 1646.69 26.5731C1646.69 26.5731 1644.78 24.6606 1642.87 22.748C1642.87 22.748 1639.04 22.748 1635.22 22.748H1619.92V57.1735H1623.74V41.8733H1629.48H1631.39C1631.39 41.8733 1631.39 41.8733 1633.3 41.8733C1635.22 41.8733 1633.3 41.8733 1635.22 43.7858C1637.13 45.6984 1637.13 45.6984 1639.04 49.5234L1642.87 57.1735H1648.6L1642.87 47.6109C1642.87 47.6109 1640.95 43.7858 1639.04 43.7858V41.8733ZM1631.39 36.1357H1621.83V24.6605H1633.3C1635.22 24.6605 1637.13 24.6605 1639.04 24.6605C1639.04 24.6605 1639.04 26.5731 1639.04 28.4856C1639.04 30.3981 1639.04 30.3982 1639.04 32.3107C1639.04 32.3107 1639.04 32.3107 1637.13 34.2232C1637.13 34.2232 1633.3 34.2232 1631.39 34.2232V36.1357Z" fill="#1D1D1B"/>
</svg>
